HIERARCHY
ROOT Hips
{
 OFFSET 0.000000 0.000000 0.000000
 CHANNELS 6 Xposition Yposition Zposition Yrotation Xrotation Zrotation
 JOINT Chest
 {
  OFFSET 0.000000 9.581000 -0.001100
  CHANNELS 3 Yrotation Xrotation Zrotation
  JOINT Chest2
  {
   OFFSET 0.000000 9.561100 0.002200
   CHANNELS 3 Yrotation Xrotation Zrotation
   JOINT Chest3
   {
    OFFSET 0.000000 9.521100 0.000000
    CHANNELS 3 Yrotation Xrotation Zrotation
    JOINT Chest4
    {
     OFFSET 0.000000 9.511400 0.000000
     CHANNELS 3 Yrotation Xrotation Zrotation
     JOINT Neck
     {
      OFFSET 0.000000 14.375100 0.000000
      CHANNELS 3 Yrotation Xrotation Zrotation
      JOINT Head
      {
       OFFSET 0.000000 8.901200 0.004600
       CHANNELS 3 Yrotation Xrotation Zrotation
       End Site
       {
        OFFSET 0.000000 16.962200 0.002400
       }
      }
     }
     JOINT RightCollar
     {
      OFFSET -2.920100 9.518800 0.000000
      CHANNELS 3 Yrotation Xrotation Zrotation
      JOINT RightShoulder
      {
       OFFSET -13.664500 0.000000 0.000000
       CHANNELS 3 Yrotation Xrotation Zrotation
       JOINT RightElbow
       {
        OFFSET 0.000000 -29.999200 0.000000
        CHANNELS 3 Yrotation Xrotation Zrotation
        JOINT RightWrist
        {
         OFFSET 0.000000 -24.253600 0.000000
         CHANNELS 3 Yrotation Xrotation Zrotation
         End Site
         {
          OFFSET 0.000000 -17.918900 0.000000
         }
        }
       }
      }
     }
     JOINT LeftCollar
     {
      OFFSET 2.920100 9.518800 0.000000
      CHANNELS 3 Yrotation Xrotation Zrotation
      JOINT LeftShoulder
      {
       OFFSET 13.664500 0.000000 0.000000
       CHANNELS 3 Yrotation Xrotation Zrotation
       JOINT LeftElbow
       {
        OFFSET 0.000000 -29.999200 0.000000
        CHANNELS 3 Yrotation Xrotation Zrotation
        JOINT LeftWrist
        {
         OFFSET 0.000000 -24.253600 0.000000
         CHANNELS 3 Yrotation Xrotation Zrotation
         End Site
         {
          OFFSET 0.000000 -17.918900 0.000000
         }
        }
       }
      }
     }
    }
   }
  }
 }
 JOINT RightHip
 {
  OFFSET -7.797300 0.005300 0.000500
  CHANNELS 3 Yrotation Xrotation Zrotation
  JOINT RightKnee
  {
   OFFSET 0.000000 -40.663400 -0.000500
   CHANNELS 3 Yrotation Xrotation Zrotation
   JOINT RightAnkle
   {
    OFFSET 0.000000 -39.523700 -0.000900
    CHANNELS 3 Yrotation Xrotation Zrotation
    JOINT RightToe
    {
     OFFSET 0.000000 -6.418000 14.485300
     CHANNELS 3 Yrotation Xrotation Zrotation
     End Site
     {
      OFFSET 0.000000 -1.465200 6.326400
     }
    }
   }
  }
 }
 JOINT LeftHip
 {
  OFFSET 7.797300 0.005300 0.000500
  CHANNELS 3 Yrotation Xrotation Zrotation
  JOINT LeftKnee
  {
   OFFSET 0.000000 -40.663400 -0.000500
   CHANNELS 3 Yrotation Xrotation Zrotation
   JOINT LeftAnkle
   {
    OFFSET 0.000000 -39.523700 -0.000900
    CHANNELS 3 Yrotation Xrotation Zrotation
    JOINT LeftToe
    {
     OFFSET 0.000000 -6.418000 14.485300
     CHANNELS 3 Yrotation Xrotation Zrotation
     End Site
     {
      OFFSET 0.000000 -1.465200 6.326400
     }
    }
   }
  }
 }
}
MOTION
Frames: 11
Frame Time: 0.008333
-14.755619 126.890308 13.775193 166.446927 -48.759009 -5.835925 3.759186 26.081480 5.463398 0.453533 4.452170 0.776632 0.732091 7.055671 1.269804 2.844983 21.380367 4.260737 5.264514 20.805483 -6.189736 7.253530 -3.078062 -8.077262 1.086257 2.454354 2.939342 7.539931 -12.810032 -17.847308 -87.392267 -63.619735 139.265808 5.020889 7.453121 0.667164 -10.334413 -0.659163 0.434412 -11.482148 -14.386088 15.114606 50.692562 -55.629870 -102.591525 0.508028 -21.638989 13.432793 -12.175704 -9.128963 3.749971 -176.856571 82.985941 -165.638797 10.536126 -7.621885 -1.852758 0.000137 -0.001607 0.000061 -3.778356 -24.677974 -1.624307 -0.051280 75.065871 -0.180368 1.487027 -5.218510 -2.943736 -0.000363 0.000695 -0.000161
-14.756030 126.890388 13.775655 166.443234 -48.761974 -5.829665 3.752788 26.082786 5.462976 0.445080 4.449557 0.783827 0.736456 7.058045 1.262802 2.829090 21.376649 4.272091 5.088486 20.807635 -6.284003 7.077057 -3.080874 -8.133296 1.096273 2.456843 2.921396 7.526238 -12.826067 -17.826071 -87.391976 -63.632987 139.273005 5.029045 7.438933 0.662408 -10.323266 -0.669162 0.416822 -11.490923 -14.384798 15.129962 50.712154 -55.610279 -102.601403 0.502861 -21.637019 13.429502 -12.175173 -9.127339 3.749112 -176.837460 82.984411 -165.622818 10.536829 -7.623112 -1.854420 0.000110 -0.001263 0.000049 -3.777448 -24.673978 -1.624889 -0.058681 75.063236 -0.192371 1.487528 -5.221052 -2.944207 0.000066 -0.000112 0.000029
-14.756309 126.890396 13.776257 166.444589 -48.763941 -5.828687 3.741435 26.083005 5.464906 0.442889 4.448271 0.784978 0.732975 7.056409 1.264566 2.819344 21.374679 4.276448 4.914512 20.800187 -6.372370 6.906049 -3.094163 -8.187380 1.100428 2.459584 2.910960 7.532167 -12.827098 -17.824063 -87.424549 -63.633657 139.294998 5.023739 7.453310 0.668068 -10.304719 -0.667203 0.400467 -11.512926 -14.391419 15.144040 50.729415 -55.614701 -102.614410 0.501224 -21.637204 13.434418 -12.177068 -9.126438 3.749345 -176.831441 82.983477 -165.618767 10.537664 -7.621834 -1.857426 0.000110 -0.001268 0.000049 -3.779041 -24.669636 -1.625277 -0.059305 75.058462 -0.195578 1.485423 -5.223070 -2.946956 -0.000357 0.000604 -0.000158
-14.756506 126.890250 13.777055 166.443618 -48.765203 -5.827298 3.729498 26.079166 5.467994 0.426274 4.441031 0.796815 0.742631 7.062053 1.252851 2.809613 21.373672 4.277965 4.746971 20.780632 -6.453910 6.739874 -3.120966 -8.240779 1.102216 2.463070 2.908405 7.546067 -12.820626 -17.834677 -87.472955 -63.627408 139.326917 5.025391 7.450918 0.671625 -10.288118 -0.663969 0.384091 -11.531715 -14.394875 15.155999 50.744569 -55.621783 -102.628052 0.498576 -21.637425 13.441003 -12.176739 -9.127245 3.752111 -176.806396 82.982344 -165.595925 10.540138 -7.618040 -1.860062 -0.000106 -0.001271 -0.000047 -3.778450 -24.667726 -1.625990 -0.047631 75.055882 -0.184716 1.483678 -5.224922 -2.948902 -0.000264 0.000682 -0.000117
-14.756964 126.889998 13.777915 166.442834 -48.766228 -5.825187 3.713951 26.076452 5.470215 0.425700 4.439421 0.796917 0.737058 7.060816 1.254821 2.798348 21.371964 4.280668 4.584260 20.748269 -6.537842 6.575712 -3.164156 -8.291489 1.114500 2.473290 2.889938 7.550270 -12.821246 -17.834765 -87.516617 -63.619922 139.355410 5.037169 7.426592 0.670903 -10.266781 -0.660259 0.362874 -11.549355 -14.397378 15.161790 50.767168 -55.640222 -102.651754 0.501685 -21.630533 13.451125 -12.175717 -9.128537 3.756941 -176.920508 82.983431 -165.713930 10.521611 -7.617730 -1.858008 -0.000389 -0.000442 -0.000172 -3.777996 -24.666327 -1.625681 -0.020133 75.053809 -0.161419 1.475493 -5.228555 -2.952389 -0.000660 0.000632 -0.000292
-14.757363 126.889755 13.778868 166.442812 -48.767874 -5.824668 3.700556 26.073393 5.474053 0.424239 4.437881 0.796558 0.722658 7.053170 1.266582 2.776382 21.366425 4.292052 4.429145 20.716522 -6.642868 6.413425 -3.224156 -8.337158 1.139108 2.495938 2.848726 7.548129 -12.824865 -17.823472 -87.540967 -63.620053 139.373465 5.039022 7.442493 0.683143 -10.240025 -0.647156 0.315311 -11.556734 -14.400803 15.164383 50.780952 -55.638943 -102.655014 0.487867 -21.626470 13.450037 -12.175184 -9.128003 3.760607 -176.919120 82.981522 -165.713272 10.517578 -7.618841 -1.858005 0.000415 0.000017 0.000184 -3.777979 -24.667251 -1.624058 -0.011378 75.056019 -0.157832 1.471487 -5.228493 -2.948672 -0.001475 0.000274 -0.000654
-14.757568 126.889544 13.779934 166.441683 -48.770366 -5.825090 3.690298 26.070966 5.478789 0.420825 4.435348 0.797349 0.730929 7.059747 1.259407 2.764474 21.361139 4.301981 4.269244 20.653665 -6.709144 6.255946 -3.299930 -8.377320 1.139353 2.494744 2.848083 7.546788 -12.817703 -17.822543 -87.567978 -63.614514 139.398811 5.042431 7.461343 0.698273 -10.239273 -0.650491 0.305124 -11.553059 -14.399090 15.161960 50.800920 -55.659967 -102.671668 0.496281 -21.620260 13.460418 -12.174060 -9.126727 3.764819 -176.914944 82.979502 -165.707917 10.512522 -7.618776 -1.860022 0.000939 -0.000103 0.000416 -3.775798 -24.665900 -1.619380 -0.021414 75.057689 -0.171624 1.470256 -5.231840 -2.946434 -0.001005 0.000473 -0.000445
-14.757680 126.890046 13.780417 166.443087 -48.778763 -5.827572 3.677830 26.070975 5.483401 0.418090 4.436294 0.798212 0.728103 7.059176 1.261140 2.768816 21.369155 4.292327 4.111451 20.573335 -6.756921 6.104001 -3.389768 -8.410797 1.116277 2.473751 2.871144 7.546180 -12.817479 -17.805378 -87.539144 -63.633016 139.384182 5.042360 7.455862 0.699698 -10.245588 -0.655810 0.308814 -11.543243 -14.396759 15.154334 50.812918 -55.665406 -102.675695 0.494571 -21.615316 13.453871 -12.173308 -9.118767 3.768226 -176.912430 82.979042 -165.705563 10.508274 -7.617489 -1.864251 0.000729 -0.000814 0.000323 -3.775445 -24.658601 -1.615759 -0.027152 75.060761 -0.182216 1.472429 -5.237109 -2.943080 -0.000334 -0.000620 -0.000148
-14.758114 126.890636 13.780681 166.441208 -48.788330 -5.825778 3.656007 26.066957 5.487927 0.425027 4.442543 0.791756 0.709803 7.051498 1.273131 2.764192 21.382216 4.280347 3.973199 20.487111 -6.815829 5.955705 -3.491253 -8.436604 1.130569 2.474467 2.855713 7.543998 -12.817805 -17.799654 -87.564474 -63.628149 139.400910 5.036278 7.469828 0.711219 -10.231254 -0.661973 0.295889 -11.534268 -14.392242 15.145801 50.822942 -55.664843 -102.675187 0.480619 -21.615054 13.460516 -12.170296 -9.109402 3.767889 -176.913351 82.978663 -165.707296 10.505759 -7.617959 -1.862821 0.000309 -0.001422 0.000137 -3.773204 -24.648743 -1.616069 -0.016974 75.063508 -0.174412 1.469066 -5.244903 -2.944877 0.000580 -0.001146 0.000257
-14.758689 126.891213 13.780798 166.437264 -48.798115 -5.821741 3.656532 26.074307 5.488392 0.417814 4.437115 0.794574 0.706244 7.048539 1.276317 2.759065 21.383813 4.286169 3.832406 20.392711 -6.868196 5.810858 -3.602679 -8.455580 1.135554 2.478241 2.841278 7.540557 -12.818271 -17.793661 -87.586766 -63.625477 139.417199 5.032674 7.484136 0.722461 -10.229233 -0.669662 0.294132 -11.518704 -14.384751 15.119841 50.826871 -55.663877 -102.667161 0.481314 -21.611773 13.454251 -12.165350 -9.101166 3.767929 -176.905149 82.977855 -165.701020 10.503784 -7.617506 -1.859578 0.000261 -0.002086 0.000116 -3.767988 -24.637757 -1.616934 -0.035571 75.064996 -0.197252 1.472213 -5.251537 -2.940425 0.000134 -0.000347 0.000059
-14.758145 126.891579 13.781485 166.424465 -48.805377 -5.818645 3.653670 26.071889 5.493672 0.427045 4.444140 0.791602 0.698995 7.041008 1.282745 2.751835 21.379044 4.290567 3.699506 20.298054 -6.913343 5.671112 -3.720484 -8.468796 1.147169 2.482848 2.836564 7.525002 -12.825936 -17.787764 -87.576325 -63.626454 139.407756 5.030567 7.501286 0.735344 -10.218878 -0.660767 0.279505 -11.513911 -14.382252 15.110055 50.831290 -55.663295 -102.663085 0.480840 -21.611395 13.452780 -12.154978 -9.094908 3.778027 -176.943028 82.977271 -165.741116 10.496572 -7.616713 -1.857944 -0.000202 -0.001378 -0.000089 -3.756702 -24.628260 -1.611995 -0.048301 75.065409 -0.206872 1.472251 -5.258037 -2.939203 0.000254 0.000412 0.000112
